<svg xmlns="http://www.w3.org/2000/svg" viewBox="0 0 24 24"><defs><style>.cls-1{fill:none;stroke:#000;stroke-linejoin:round;}</style></defs><title>Asset 1</title><g id="Layer_2" data-name="Layer 2"><g id="Outline_Old_Icons" data-name="Outline Old Icons"><path class="cls-1" d="M12,23.5H23.5a10.14,10.14,0,0,0-1-4.06c-.75-1.49-4-2.5-8-4v-3a3.75,3.75,0,0,0,1.5-3c.5,0,1-2,0-2.5,0-.3,1.34-2.8,1-4.5-.5-2.5-7.5-2.5-8-.5-3,0-1,4.59-1,5-1,.5-.5,2.5,0,2.5a3.75,3.75,0,0,0,1.5,3v3c-4,1.5-7.25,2.51-8,4a10.14,10.14,0,0,0-1,4.06Z"/></g></g></svg>